<?xml version="1.0" encoding="UTF-8" standalone="no" ?>
<!DOCTYPE svg PUBLIC "-//W3C//DTD SVG 1.1//EN" "http://www.w3.org/Graphics/SVG/1.1/DTD/svg11.dtd">
<svg xmlns="http://www.w3.org/2000/svg" xmlns:xlink="http://www.w3.org/1999/xlink" version="1.1" width="500" height="500" viewBox="0 0 500 500" xml:space="preserve">
<desc>Created with Fabric.js 5.3.0</desc>
<defs>
</defs>
<g transform="matrix(1 0 0 1 241.265643845 264.0851853298)" id="C2BOAHUTDIMsCzq49EchO"  >
<path style="stroke:white;stroke-width: 1; stroke-dasharray: none; stroke-linecap: butt; stroke-dashoffset: 0; stroke-linejoin: miter; stroke-miterlimit: 4; stroke: white;fill-rule: nonzero; opacity: 1;filter: url(#SVGID_0);"  transform=" translate(4.727e-7, 0.0000084781)" d="M -186.53978 167.64389 C -186.05183 160.20894 -199.86913 188.98982999999998 -176.42306000000002 126.46699 C -141.48101000000003 33.28819 -107.51643000000001 -19.81437000000001 -80.19449000000002 -50.07728999999999 C -76.36091000000002 -54.32352999999999 135.73769999999996 193.75395000000003 139.29408999999998 190.3594 C 169.11793999999998 161.8927 -19.751390000000015 -90.17470000000003 -19.751390000000015 -90.17470000000003 L -1.7603900000000152 -151.64397000000002 L -111.95529000000002 -168.13572000000002 L -54.97803000000002 -93.92283000000002 L 34.97123999999998 -93.92283000000002 L 190.14364999999998 -73.68295000000002 L 109.93374999999997 -58.71854000000002 L 190.14364999999998 121.96922999999998 L 60.45848999999998 -42.94831000000002 L -31.74541000000002 38.01120999999998 L -27.99728000000002 102.47897999999998 L 100.17291999999998 -190.39394000000004 L -162.18019000000004 139.96023999999994 C -162.18019000000004 139.96023999999994 -187.73674000000005 185.88190999999995 -186.53978000000004 167.64388999999994 z" stroke-linecap="round" />
<filter id="SVGID_0" y="-23.15136095%" height="146.3027219%" x="-26.57397708%" width="153.14795415999998%" >
	<feGaussianBlur in="SourceAlpha" stdDeviation="0"></feGaussianBlur>
	<feOffset dx="25" dy="12" result="oBlur" ></feOffset>
	<feFlood flood-color="rgb(0,0,0)" flood-opacity="1"/>
	<feComposite in2="oBlur" operator="in" />
	<feMerge>
		<feMergeNode></feMergeNode>
		<feMergeNode in="SourceGraphic"></feMergeNode>
	</feMerge>
</filter>
<path style="stroke: rgb(0,0,0); stroke-width: 1; stroke-dasharray: none; stroke-linecap: butt; stroke-dashoffset: 0; stroke-linejoin: miter; stroke-miterlimit: 4; fill: rgb(238,151,242); fill-rule: nonzero; opacity: 1;"  transform=" translate(4.727e-7, 0.0000084781)" d="M -186.53978 167.64389 C -186.05183 160.20894 -199.86913 188.98982999999998 -176.42306000000002 126.46699 C -141.48101000000003 33.28819 -107.51643000000001 -19.81437000000001 -80.19449000000002 -50.07728999999999 C -76.36091000000002 -54.32352999999999 135.73769999999996 193.75395000000003 139.29408999999998 190.3594 C 169.11793999999998 161.8927 -19.751390000000015 -90.17470000000003 -19.751390000000015 -90.17470000000003 L -1.7603900000000152 -151.64397000000002 L -111.95529000000002 -168.13572000000002 L -54.97803000000002 -93.92283000000002 L 34.97123999999998 -93.92283000000002 L 190.14364999999998 -73.68295000000002 L 109.93374999999997 -58.71854000000002 L 190.14364999999998 121.96922999999998 L 60.45848999999998 -42.94831000000002 L -31.74541000000002 38.01120999999998 L -27.99728000000002 102.47897999999998 L 100.17291999999998 -190.39394000000004 L -162.18019000000004 139.96023999999994 C -162.18019000000004 139.96023999999994 -187.73674000000005 185.88190999999995 -186.53978000000004 167.64388999999994 z" stroke-linecap="round" />
</g>
</svg>